<mxfile host="drawio-plugin" modified="2024-02-08T19:31:30.398Z" agent="5.0 (Macintosh; Intel Mac OS X 10_15_7) AppleWebKit/537.36 (KHTML, like Gecko) Chrome/104.0.5112.102 Safari/537.36" etag="T6tKfTd1JriqWrlrVI4R" version="20.5.3" type="embed" pages="2"><diagram name="Page-1" id="9A-b66y6Jr2mR1kLJ9BA"><mxGraphModel dx="1156" dy="629" grid="1" gridSize="10" guides="1" tooltips="1" connect="1" arrows="1" fold="1" page="1" pageScale="1" pageWidth="850" pageHeight="1100" math="0" shadow="0"><root><mxCell id="0"/><mxCell id="1" parent="0"/><mxCell id="dILMTx3V24RCvQ_FTe7t-1" value="MyStruct3" style="swimlane;fontStyle=1;align=center;verticalAlign=top;childLayout=stackLayout;horizontal=1;startSize=26;horizontalStack=0;resizeParent=1;resizeParentMax=0;resizeLast=0;collapsible=1;marginBottom=0;whiteSpace=wrap;html=1;fillColor=#d5e8d4;strokeColor=#82b366;" parent="1" vertex="1"><mxGeometry x="10" y="10" width="160" height="86" as="geometry"/></mxCell><mxCell id="dILMTx3V24RCvQ_FTe7t-2" value="+ Foo MyStruct1" style="text;strokeColor=none;fillColor=none;align=left;verticalAlign=top;spacingLeft=4;spacingRight=4;overflow=hidden;rotatable=0;points=[[0,0.5],[1,0.5]];portConstraint=eastwest;whiteSpace=wrap;html=1;" parent="dILMTx3V24RCvQ_FTe7t-1" vertex="1"><mxGeometry y="26" width="160" height="26" as="geometry"/></mxCell><mxCell id="dILMTx3V24RCvQ_FTe7t-3" value="" style="line;strokeWidth=1;fillColor=none;align=left;verticalAlign=middle;spacingTop=-1;spacingLeft=3;spacingRight=3;rotatable=0;labelPosition=right;points=[];portConstraint=eastwest;strokeColor=inherit;" parent="dILMTx3V24RCvQ_FTe7t-1" vertex="1"><mxGeometry y="52" width="160" height="8" as="geometry"/></mxCell><mxCell id="dILMTx3V24RCvQ_FTe7t-4" value="- foo()" style="text;strokeColor=none;fillColor=none;align=left;verticalAlign=top;spacingLeft=4;spacingRight=4;overflow=hidden;rotatable=0;points=[[0,0.5],[1,0.5]];portConstraint=eastwest;whiteSpace=wrap;html=1;" parent="dILMTx3V24RCvQ_FTe7t-1" vertex="1"><mxGeometry y="60" width="160" height="26" as="geometry"/></mxCell><mxCell id="dILMTx3V24RCvQ_FTe7t-11" value="MyInterface" style="swimlane;fontStyle=1;align=center;verticalAlign=top;childLayout=stackLayout;horizontal=1;startSize=26;horizontalStack=0;resizeParent=1;resizeParentMax=0;resizeLast=0;collapsible=1;marginBottom=0;whiteSpace=wrap;html=1;fillColor=#e1d5e7;strokeColor=#9673a6;" parent="1" vertex="1"><mxGeometry x="240" y="10" width="160" height="86" as="geometry"/></mxCell><mxCell id="dILMTx3V24RCvQ_FTe7t-12" value="+ field: type" style="text;strokeColor=none;fillColor=none;align=left;verticalAlign=top;spacingLeft=4;spacingRight=4;overflow=hidden;rotatable=0;points=[[0,0.5],[1,0.5]];portConstraint=eastwest;whiteSpace=wrap;html=1;" parent="dILMTx3V24RCvQ_FTe7t-11" vertex="1"><mxGeometry y="26" width="160" height="26" as="geometry"/></mxCell><mxCell id="dILMTx3V24RCvQ_FTe7t-13" value="" style="line;strokeWidth=1;fillColor=none;align=left;verticalAlign=middle;spacingTop=-1;spacingLeft=3;spacingRight=3;rotatable=0;labelPosition=right;points=[];portConstraint=eastwest;strokeColor=inherit;" parent="dILMTx3V24RCvQ_FTe7t-11" vertex="1"><mxGeometry y="52" width="160" height="8" as="geometry"/></mxCell><mxCell id="dILMTx3V24RCvQ_FTe7t-14" value="+ method(type): type" style="text;strokeColor=none;fillColor=none;align=left;verticalAlign=top;spacingLeft=4;spacingRight=4;overflow=hidden;rotatable=0;points=[[0,0.5],[1,0.5]];portConstraint=eastwest;whiteSpace=wrap;html=1;" parent="dILMTx3V24RCvQ_FTe7t-11" vertex="1"><mxGeometry y="60" width="160" height="26" as="geometry"/></mxCell><mxCell id="dILMTx3V24RCvQ_FTe7t-15" value="MyStruct1" style="swimlane;fontStyle=1;align=center;verticalAlign=top;childLayout=stackLayout;horizontal=1;startSize=26;horizontalStack=0;resizeParent=1;resizeParentMax=0;resizeLast=0;collapsible=1;marginBottom=0;whiteSpace=wrap;html=1;fillColor=#d5e8d4;strokeColor=#82b366;" parent="1" vertex="1"><mxGeometry x="240" y="190" width="160" height="60" as="geometry"/></mxCell><mxCell id="dILMTx3V24RCvQ_FTe7t-17" value="" style="line;strokeWidth=1;fillColor=none;align=left;verticalAlign=middle;spacingTop=-1;spacingLeft=3;spacingRight=3;rotatable=0;labelPosition=right;points=[];portConstraint=eastwest;strokeColor=inherit;" parent="dILMTx3V24RCvQ_FTe7t-15" vertex="1"><mxGeometry y="26" width="160" height="8" as="geometry"/></mxCell><mxCell id="dILMTx3V24RCvQ_FTe7t-18" value="+ method(type): type" style="text;strokeColor=none;fillColor=none;align=left;verticalAlign=top;spacingLeft=4;spacingRight=4;overflow=hidden;rotatable=0;points=[[0,0.5],[1,0.5]];portConstraint=eastwest;whiteSpace=wrap;html=1;" parent="dILMTx3V24RCvQ_FTe7t-15" vertex="1"><mxGeometry y="34" width="160" height="26" as="geometry"/></mxCell><mxCell id="dILMTx3V24RCvQ_FTe7t-19" value="MyStruct2" style="swimlane;fontStyle=1;align=center;verticalAlign=top;childLayout=stackLayout;horizontal=1;startSize=26;horizontalStack=0;resizeParent=1;resizeParentMax=0;resizeLast=0;collapsible=1;marginBottom=0;whiteSpace=wrap;html=1;fillColor=#d5e8d4;strokeColor=#82b366;" parent="1" vertex="1"><mxGeometry x="240" y="350" width="160" height="34" as="geometry"/></mxCell><mxCell id="dILMTx3V24RCvQ_FTe7t-21" value="" style="line;strokeWidth=1;fillColor=none;align=left;verticalAlign=middle;spacingTop=-1;spacingLeft=3;spacingRight=3;rotatable=0;labelPosition=right;points=[];portConstraint=eastwest;strokeColor=inherit;" parent="dILMTx3V24RCvQ_FTe7t-19" vertex="1"><mxGeometry y="26" width="160" height="8" as="geometry"/></mxCell><mxCell id="dILMTx3V24RCvQ_FTe7t-23" value="" style="endArrow=diamondThin;endFill=1;endSize=24;html=1;rounded=0;" parent="1" source="dILMTx3V24RCvQ_FTe7t-19" target="dILMTx3V24RCvQ_FTe7t-15" edge="1"><mxGeometry width="160" relative="1" as="geometry"><mxPoint x="220" y="270" as="sourcePoint"/><mxPoint x="380" y="270" as="targetPoint"/></mxGeometry></mxCell><mxCell id="dILMTx3V24RCvQ_FTe7t-24" value="" style="endArrow=block;endSize=16;endFill=0;html=1;rounded=0;" parent="1" source="dILMTx3V24RCvQ_FTe7t-15" target="dILMTx3V24RCvQ_FTe7t-11" edge="1"><mxGeometry width="160" relative="1" as="geometry"><mxPoint x="220" y="190" as="sourcePoint"/><mxPoint x="380" y="190" as="targetPoint"/></mxGeometry></mxCell></root></mxGraphModel></diagram><diagram id="raCPii82oOUgVRBAZYWZ" name="Page-2"><mxGraphModel dx="1156" dy="629" grid="1" gridSize="10" guides="1" tooltips="1" connect="1" arrows="1" fold="1" page="1" pageScale="1" pageWidth="850" pageHeight="1100" math="0" shadow="0"><root><mxCell id="0"/><mxCell id="1" parent="0"/><mxCell id="D4TPYhZINODG5pd7QCyL-1" value="MyStruct3" style="swimlane;fontStyle=1;align=center;verticalAlign=top;childLayout=stackLayout;horizontal=1;startSize=26;horizontalStack=0;resizeParent=1;resizeParentMax=0;resizeLast=0;collapsible=1;marginBottom=0;whiteSpace=wrap;html=1;fillColor=#d5e8d4;strokeColor=#82b366;" parent="1" vertex="1"><mxGeometry x="10" y="10" width="160" height="86" as="geometry"/></mxCell><mxCell id="D4TPYhZINODG5pd7QCyL-2" value="+ Foo MyStruct1" style="text;strokeColor=none;fillColor=none;align=left;verticalAlign=top;spacingLeft=4;spacingRight=4;overflow=hidden;rotatable=0;points=[[0,0.5],[1,0.5]];portConstraint=eastwest;whiteSpace=wrap;html=1;" parent="D4TPYhZINODG5pd7QCyL-1" vertex="1"><mxGeometry y="26" width="160" height="26" as="geometry"/></mxCell><mxCell id="D4TPYhZINODG5pd7QCyL-3" value="" style="line;strokeWidth=1;fillColor=none;align=left;verticalAlign=middle;spacingTop=-1;spacingLeft=3;spacingRight=3;rotatable=0;labelPosition=right;points=[];portConstraint=eastwest;strokeColor=inherit;" parent="D4TPYhZINODG5pd7QCyL-1" vertex="1"><mxGeometry y="52" width="160" height="8" as="geometry"/></mxCell><mxCell id="D4TPYhZINODG5pd7QCyL-4" value="- foo()" style="text;strokeColor=none;fillColor=none;align=left;verticalAlign=top;spacingLeft=4;spacingRight=4;overflow=hidden;rotatable=0;points=[[0,0.5],[1,0.5]];portConstraint=eastwest;whiteSpace=wrap;html=1;" parent="D4TPYhZINODG5pd7QCyL-1" vertex="1"><mxGeometry y="60" width="160" height="26" as="geometry"/></mxCell><mxCell id="D4TPYhZINODG5pd7QCyL-5" value="MyInterface" style="swimlane;fontStyle=1;align=center;verticalAlign=top;childLayout=stackLayout;horizontal=1;startSize=26;horizontalStack=0;resizeParent=1;resizeParentMax=0;resizeLast=0;collapsible=1;marginBottom=0;whiteSpace=wrap;html=1;fillColor=#e1d5e7;strokeColor=#9673a6;" parent="1" vertex="1"><mxGeometry x="240" y="10" width="160" height="86" as="geometry"/></mxCell><mxCell id="D4TPYhZINODG5pd7QCyL-6" value="+ field: type" style="text;strokeColor=none;fillColor=none;align=left;verticalAlign=top;spacingLeft=4;spacingRight=4;overflow=hidden;rotatable=0;points=[[0,0.5],[1,0.5]];portConstraint=eastwest;whiteSpace=wrap;html=1;" parent="D4TPYhZINODG5pd7QCyL-5" vertex="1"><mxGeometry y="26" width="160" height="26" as="geometry"/></mxCell><mxCell id="D4TPYhZINODG5pd7QCyL-7" value="" style="line;strokeWidth=1;fillColor=none;align=left;verticalAlign=middle;spacingTop=-1;spacingLeft=3;spacingRight=3;rotatable=0;labelPosition=right;points=[];portConstraint=eastwest;strokeColor=inherit;" parent="D4TPYhZINODG5pd7QCyL-5" vertex="1"><mxGeometry y="52" width="160" height="8" as="geometry"/></mxCell><mxCell id="D4TPYhZINODG5pd7QCyL-8" value="+ method(type): type" style="text;strokeColor=none;fillColor=none;align=left;verticalAlign=top;spacingLeft=4;spacingRight=4;overflow=hidden;rotatable=0;points=[[0,0.5],[1,0.5]];portConstraint=eastwest;whiteSpace=wrap;html=1;" parent="D4TPYhZINODG5pd7QCyL-5" vertex="1"><mxGeometry y="60" width="160" height="26" as="geometry"/></mxCell><mxCell id="D4TPYhZINODG5pd7QCyL-9" value="MyStruct1" style="swimlane;fontStyle=1;align=center;verticalAlign=top;childLayout=stackLayout;horizontal=1;startSize=26;horizontalStack=0;resizeParent=1;resizeParentMax=0;resizeLast=0;collapsible=1;marginBottom=0;whiteSpace=wrap;html=1;fillColor=#d5e8d4;strokeColor=#82b366;" parent="1" vertex="1"><mxGeometry x="240" y="190" width="160" height="60" as="geometry"/></mxCell><mxCell id="D4TPYhZINODG5pd7QCyL-10" value="" style="line;strokeWidth=1;fillColor=none;align=left;verticalAlign=middle;spacingTop=-1;spacingLeft=3;spacingRight=3;rotatable=0;labelPosition=right;points=[];portConstraint=eastwest;strokeColor=inherit;" parent="D4TPYhZINODG5pd7QCyL-9" vertex="1"><mxGeometry y="26" width="160" height="8" as="geometry"/></mxCell><mxCell id="D4TPYhZINODG5pd7QCyL-11" value="+ method(type): type" style="text;strokeColor=none;fillColor=none;align=left;verticalAlign=top;spacingLeft=4;spacingRight=4;overflow=hidden;rotatable=0;points=[[0,0.5],[1,0.5]];portConstraint=eastwest;whiteSpace=wrap;html=1;" parent="D4TPYhZINODG5pd7QCyL-9" vertex="1"><mxGeometry y="34" width="160" height="26" as="geometry"/></mxCell><mxCell id="D4TPYhZINODG5pd7QCyL-12" value="MyStruct2" style="swimlane;fontStyle=1;align=center;verticalAlign=top;childLayout=stackLayout;horizontal=1;startSize=26;horizontalStack=0;resizeParent=1;resizeParentMax=0;resizeLast=0;collapsible=1;marginBottom=0;whiteSpace=wrap;html=1;fillColor=#d5e8d4;strokeColor=#82b366;" parent="1" vertex="1"><mxGeometry x="240" y="350" width="160" height="34" as="geometry"/></mxCell><mxCell id="D4TPYhZINODG5pd7QCyL-13" value="" style="line;strokeWidth=1;fillColor=none;align=left;verticalAlign=middle;spacingTop=-1;spacingLeft=3;spacingRight=3;rotatable=0;labelPosition=right;points=[];portConstraint=eastwest;strokeColor=inherit;" parent="D4TPYhZINODG5pd7QCyL-12" vertex="1"><mxGeometry y="26" width="160" height="8" as="geometry"/></mxCell><mxCell id="D4TPYhZINODG5pd7QCyL-14" value="extends" style="endArrow=diamondThin;endFill=1;endSize=24;html=1;rounded=0;" parent="1" source="D4TPYhZINODG5pd7QCyL-12" target="D4TPYhZINODG5pd7QCyL-9" edge="1"><mxGeometry width="160" relative="1" as="geometry"><mxPoint x="220" y="270" as="sourcePoint"/><mxPoint x="380" y="270" as="targetPoint"/></mxGeometry></mxCell><mxCell id="D4TPYhZINODG5pd7QCyL-15" value="implements" style="endArrow=block;endSize=16;endFill=0;html=1;rounded=0;" parent="1" source="D4TPYhZINODG5pd7QCyL-9" target="D4TPYhZINODG5pd7QCyL-5" edge="1"><mxGeometry width="160" relative="1" as="geometry"><mxPoint x="220" y="190" as="sourcePoint"/><mxPoint x="380" y="190" as="targetPoint"/></mxGeometry></mxCell><mxCell id="D4TPYhZINODG5pd7QCyL-16" value="uses" style="endArrow=diamondThin;endFill=0;endSize=24;html=1;rounded=0;" parent="1" source="D4TPYhZINODG5pd7QCyL-9" target="D4TPYhZINODG5pd7QCyL-1" edge="1"><mxGeometry width="160" relative="1" as="geometry"><mxPoint x="340" y="260" as="sourcePoint"/><mxPoint x="500" y="260" as="targetPoint"/></mxGeometry></mxCell></root></mxGraphModel></diagram></mxfile>